<svg xmlns="http://www.w3.org/2000/svg" width="50.205" height="52.606" viewBox="0 0 50.205 52.606">
    <defs>
        <style>
            .cls-1{fill:#f05883}.cls-2{fill:#7dc572}.cls-3{fill:#3f4c77}.cls-4{fill:#f6bd17}
        </style>
    </defs>
    <g id="_54gene_Symbol" data-name="54gene_Symbol" transform="translate(-551.3 -786.127)">
        <path id="Path_441" d="M586.151 792.1a5.976 5.976 0 1 1-5.976-5.976 5.975 5.975 0 0 1 5.976 5.976z" class="cls-1" data-name="Path 441" transform="translate(-16.924)"/>
        <path id="Path_442" d="M686.951 947.9a5.976 5.976 0 1 1-5.976-5.976 5.975 5.975 0 0 1 5.976 5.976z" class="cls-1" data-name="Path 442" transform="translate(-91.421 -115.145)"/>
        <path id="Path_443" d="M647.051 807.7a5.976 5.976 0 1 1-5.976-5.976 5.975 5.975 0 0 1 5.976 5.976z" class="cls-2" data-name="Path 443" transform="translate(-61.933 -11.529)"/>
        <path id="Path_444" d="M580.651 853.5a5.976 5.976 0 1 1-5.976-5.976 5.975 5.975 0 0 1 5.976 5.976z" class="cls-2" data-name="Path 444" transform="translate(-12.86 -45.378)"/>
        <path id="Path_445" d="M605.978 824.627L591.6 835.691l2.818 2.27 13.439-9.759z" class="cls-2" data-name="Path 445" transform="translate(-29.784 -28.454)"/>
        <path id="Path_446" d="M626.451 932.3a5.976 5.976 0 1 1-5.976-5.976 5.975 5.975 0 0 1 5.976 5.976z" class="cls-3" data-name="Path 446" transform="translate(-46.708 -103.616)"/>
        <path id="Path_447" d="M698.851 886.5a5.976 5.976 0 1 1-5.976-5.976 5.975 5.975 0 0 1 5.976 5.976z" class="cls-3" data-name="Path 447" transform="translate(-100.216 -69.767)"/>
        <path id="Path_448" d="M651.778 900.727L637.4 911.791l2.818 2.27 13.439-9.733z" class="cls-3" data-name="Path 448" transform="translate(-63.633 -84.696)"/>
        <path id="Path_449" d="M709.851 821.4a5.976 5.976 0 1 1-5.976-5.976 5.975 5.975 0 0 1 5.976 5.976z" class="cls-4" data-name="Path 449" transform="translate(-108.346 -21.654)"/>
        <path id="Path_450" d="M563.251 920.4a5.976 5.976 0 1 1-5.976-5.976 5.975 5.975 0 0 1 5.976 5.976z" class="cls-4" data-name="Path 450" transform="translate(0 -94.821)"/>
        <path id="Path_451" d="M602.52 831.427l-39.22 27.686 2.818 2.27 38.28-26.355z" class="cls-4" data-name="Path 451" transform="translate(-8.869 -33.48)"/>
    </g>
</svg>
